# xmcd
#
# Track frame offsets:
#	150
#	16508
#	35481
#	53091
#	71571
#	94273
#	112018
#	125457
#	137797
#	153908
#	179431
#	195959
#	213782
#	229468
#	265714
#	284721
#	301175
#	312472
#	335946
#
# Disc length: 4744 seconds
#
# Revision: 0
# Processed by: cddbd v1.5.1PL2 Copyright (c) Steve Scherf et al.
# Submitted via: audiograbber 1.83.01
#
DISCID=15128613
DTITLE=diverse Künstler - Evergreens 1
DYEAR=1900
DGENRE=
TTITLE0=Highway to hell
TTITLE1=Irgendwie Irgendwo Irgendwann
TTITLE2=Nick Kamen [I promised myself]
TTITLE3=OMD [Pandora's Box]
TTITLE4=Major Tom (völlig losgelöst)
TTITLE5=Eisbären
TTITLE6=Prinz von Bel Air  Theme
TTITLE7=Waterloo (deutsche Fassung)
TTITLE8=Cruel summer
TTITLE9=[Killer]
TTITLE10=Around The World
TTITLE11=Bad Boys Blue [You're a Woman]
TTITLE12=Daddy Cool
TTITLE13=C.C. Catch [Megamix '98]
TTITLE14=Camouflage [The Great Commandmet]
TTITLE15=Burning Down The House
TTITLE16=Marmor, Stein und Eisen bricht
TTITLE17=The final Countdown
TTITLE18=Goldener Reiter
EXTD=
EXTT0=
EXTT1=
EXTT2=
EXTT3=
EXTT4=
EXTT5=
EXTT6=
EXTT7=
EXTT8=
EXTT9=
EXTT10=
EXTT11=
EXTT12=
EXTT13=
EXTT14=
EXTT15=
EXTT16=
EXTT17=
EXTT18=
PLAYORDER=
